<?xml version="1.0" encoding="utf-8"?>
<!-- Generator: Adobe Illustrator 16.0.0, SVG Export Plug-In . SVG Version: 6.00 Build 0)  -->
<!DOCTYPE svg PUBLIC "-//W3C//DTD SVG 1.1//EN" "http://www.w3.org/Graphics/SVG/1.1/DTD/svg11.dtd">
<svg version="1.1" id="Layer_1" xmlns="http://www.w3.org/2000/svg" xmlns:xlink="http://www.w3.org/1999/xlink" x="0px" y="0px"
	 width="500px" height="500px" viewBox="0 0 500 500" enable-background="new 0 0 500 500" xml:space="preserve">
<g>
	<path fill="#010101" d="M268.2,246v-8.4c0-10.2-8.3-18.6-18.6-18.6c-10.2,0-18.6,8.3-18.6,18.6v8.4h-4v34.3h45.1V246H268.2z
		 M238,237.6c0-6.4,5.2-11.6,11.6-11.6c6.4,0,11.6,5.2,11.6,11.6v8.4H238V237.6z M252.8,270.9h-6.4l1-9.4c-1.2-0.7-2-2-2-3.5
		c0-2.3,1.9-4.2,4.2-4.2c2.3,0,4.2,1.9,4.2,4.2c0,1.5-0.8,2.8-2,3.5L252.8,270.9z"/>
</g>
</svg>
