<?xml version="1.0" encoding="utf-8"?>
<!-- Generator: Adobe Illustrator 16.0.0, SVG Export Plug-In . SVG Version: 6.00 Build 0)  -->
<!DOCTYPE svg PUBLIC "-//W3C//DTD SVG 1.1//EN" "http://www.w3.org/Graphics/SVG/1.1/DTD/svg11.dtd">
<svg version="1.1" id="Layer_1" xmlns="http://www.w3.org/2000/svg" xmlns:xlink="http://www.w3.org/1999/xlink" x="0px" y="0px"
	 width="500px" height="500px" viewBox="0 0 500 500" enable-background="new 0 0 500 500" xml:space="preserve">
<path fill="#010101" d="M249.9,254.7c-7.1,0-12.9-6.9-12.9-15.4c0-8.5,5.8-14.8,12.9-14.8c7.1,0,12.9,6.3,12.9,14.8
	C262.8,247.8,257,254.7,249.9,254.7z M229.9,275.5c0,0-2.7,0.2-3.9-1.5c-0.6-0.9-0.2-2.7,0.2-3.7l1.1-2.5c0,0,3-6.7,6.4-10.6
	c2.1-2.4,4.6-1.8,6.2-1.1c1,0.5,2.1,1.9,2.9,2.6c1.1,1,3.1,2.2,6.4,2.2h2c3.3-0.1,5.3-1.2,6.4-2.2c0.8-0.7,1.9-2.2,2.9-2.7
	c1.5-0.7,3.7-1.2,5.8,1.1c3.4,3.9,6.1,10.7,6.1,10.7l1.1,2.4c0.5,1,0.9,2.8,0.3,3.7c-1.1,1.6-3.7,1.4-3.7,1.4H229.9z"/>
</svg>
